/* XPM */
static char * bottom_left_active_xpm[] = {
    "20 20 2 1",
    "   c None",
    "+  c #50C7B6 s active_color_2",
    "+++++               ",
    "+++++               ",
    "+++++               ",
    "+++++               ",
    "+++++               ",
    "+++++               ",
    "+++++               ",
    "+++++               ",
    "+++++               ",
    "+++++               ",
    "+++++               ",
    "+++++               ",
    "+++++               ",
    "+++++               ",
    "+++++               ",
    "++++++++++++++++++++",
    "++++++++++++++++++++",
    "++++++++++++++++++++",
    "++++++++++++++++++++",
    "++++++++++++++++++++"};
