/* XPM */
static char *close_prelight_xpm[] = {
    "20 20 3 1",
    "   c None",
    "#  c #303636 s active_color_1",
    "+  c #68AAAA s actice_mid_2",
    "####################",
    "####################",
    "####################",
    "####################",
    "####################",
    "####################",
    "####################",
    "####################",
    "#####+++####+++#####",
    "#####+++####+++#####",
    "#######++##++#######",
    "########+##+########",
    "#########++#########",
    "########+##+########",
    "#######++##++#######",
    "#####+++####+++#####",
    "#####+++####+++#####",
    "####################",
    "####################",
    "####################"};
