/* XPM */
static char *hide_prelight_xpm[] = {
    "20 20 3 1",
    "   c None",
    "#  c #303636 s active_color_1",
    "+  c #68AAAA s active_mid_2",
    "####################",
    "####################",
    "####################",
    "####################",
    "####################",
    "####################",
    "####################",
    "####################",
    "####################",
    "####################",
    "####################",
    "####################",
    "####################",
    "####################",
    "####################",
    "#####++++++++++#####",
    "#####++++++++++#####",
    "####################",
    "####################",
    "####################"};
