/* XPM */
static char *maximize_toggled_inactive_xpm[] = {
    "20 20 3 1",
    "   c None",
    "#  c #303636 s inactive_color_1",
    "+  c #878888 s inactive_color_2",
    "####################",
    "####################",
    "####################",
    "####################",
    "####################",
    "####################",
    "####################",
    "####################",
    "#####++++++++++#####",
    "#####++++++++++#####",
    "#####++++++++++#####",
    "#####++++++++++#####",
    "#####++++++++++#####",
    "#####++++++++++#####",
    "#####++++++++++#####",
    "#####++++++++++#####",
    "#####++++++++++#####",
    "####################",
    "####################",
    "####################"};
